<mxfile host="app.diagrams.net" agent="Mozilla/5.0 (Windows NT 10.0; Win64; x64) AppleWebKit/537.36 (KHTML, like Gecko) Chrome/133.0.0.0 Safari/537.36 Edg/133.0.0.0" version="26.0.14">
  <diagram name="第 1 页" id="QJdAw4eCsFXrdTgtcEzi">
    <mxGraphModel dx="1179" dy="615" grid="1" gridSize="10" guides="1" tooltips="1" connect="1" arrows="1" fold="1" page="1" pageScale="1" pageWidth="827" pageHeight="1169" math="1" shadow="0">
      <root>
        <mxCell id="0" />
        <mxCell id="1" parent="0" />
        <mxCell id="fbFfoVUqZsGmRxwtsNzw-73" value="" style="rounded=1;whiteSpace=wrap;html=1;dashed=1;strokeWidth=2;strokeColor=#B3B3B3;" vertex="1" parent="1">
          <mxGeometry x="130" y="45" width="510" height="335" as="geometry" />
        </mxCell>
        <mxCell id="fbFfoVUqZsGmRxwtsNzw-76" value="" style="rounded=0;whiteSpace=wrap;html=1;fillColor=#f5f5f5;fontColor=#333333;strokeColor=#666666;dashed=1;opacity=80;" vertex="1" parent="1">
          <mxGeometry x="158" y="212" width="462" height="90" as="geometry" />
        </mxCell>
        <mxCell id="fbFfoVUqZsGmRxwtsNzw-1" value="&lt;font style=&quot;font-size: 14px;&quot; face=&quot;Times New Roman&quot;&gt;$$f_{i}^{t}$$&lt;/font&gt;" style="rounded=0;whiteSpace=wrap;html=1;fillColor=#ffe6cc;strokeColor=none;" vertex="1" parent="1">
          <mxGeometry x="184.5" y="70" width="400" height="20" as="geometry" />
        </mxCell>
        <mxCell id="fbFfoVUqZsGmRxwtsNzw-3" value="" style="endArrow=classic;html=1;rounded=0;exitX=0;exitY=0.5;exitDx=0;exitDy=0;strokeColor=#999999;align=center;verticalAlign=middle;fontFamily=Helvetica;fontSize=11;fontColor=default;labelBackgroundColor=default;" edge="1" parent="1" source="fbFfoVUqZsGmRxwtsNzw-4">
          <mxGeometry width="50" height="50" relative="1" as="geometry">
            <mxPoint x="278" y="156" as="sourcePoint" />
            <mxPoint x="185" y="61" as="targetPoint" />
          </mxGeometry>
        </mxCell>
        <mxCell id="fbFfoVUqZsGmRxwtsNzw-4" value="&lt;font style=&quot;font-size: 13px;&quot; face=&quot;Times New Roman&quot;&gt;$$D_m$$&lt;/font&gt;" style="text;strokeColor=none;align=center;fillColor=none;html=1;verticalAlign=middle;whiteSpace=wrap;rounded=0;" vertex="1" parent="1">
          <mxGeometry x="354.5" y="51" width="60" height="20" as="geometry" />
        </mxCell>
        <mxCell id="fbFfoVUqZsGmRxwtsNzw-5" value="" style="endArrow=classic;html=1;rounded=0;exitX=1.036;exitY=0.476;exitDx=0;exitDy=0;exitPerimeter=0;strokeColor=#999999;align=center;verticalAlign=middle;fontFamily=Helvetica;fontSize=11;fontColor=default;labelBackgroundColor=default;" edge="1" parent="1" source="fbFfoVUqZsGmRxwtsNzw-4">
          <mxGeometry width="50" height="50" relative="1" as="geometry">
            <mxPoint x="365" y="71" as="sourcePoint" />
            <mxPoint x="585" y="61" as="targetPoint" />
          </mxGeometry>
        </mxCell>
        <mxCell id="fbFfoVUqZsGmRxwtsNzw-6" value="&lt;b&gt;&lt;font style=&quot;font-size: 14px;&quot; face=&quot;Times New Roman&quot;&gt;$$f_{i,1}^{t}$$&lt;/font&gt;&lt;/b&gt;" style="rounded=0;whiteSpace=wrap;html=1;strokeColor=none;fillColor=#ffe6cc;" vertex="1" parent="1">
          <mxGeometry x="160" y="135" width="83" height="20" as="geometry" />
        </mxCell>
        <mxCell id="fbFfoVUqZsGmRxwtsNzw-7" value="&lt;b&gt;&lt;font style=&quot;font-size: 14px;&quot; face=&quot;Times New Roman&quot;&gt;$$f_{i,2}^{t}$$&lt;/font&gt;&lt;/b&gt;" style="rounded=0;whiteSpace=wrap;html=1;fillColor=#ffe6cc;strokeColor=none;" vertex="1" parent="1">
          <mxGeometry x="256" y="135" width="83" height="20" as="geometry" />
        </mxCell>
        <mxCell id="fbFfoVUqZsGmRxwtsNzw-8" value="&lt;b&gt;&lt;font style=&quot;font-size: 14px;&quot; face=&quot;Times New Roman&quot;&gt;$$f_{i,D}^{t}$$&lt;/font&gt;&lt;/b&gt;" style="rounded=0;whiteSpace=wrap;html=1;fillColor=#ffe6cc;strokeColor=none;" vertex="1" parent="1">
          <mxGeometry x="530" y="135" width="83" height="20" as="geometry" />
        </mxCell>
        <mxCell id="fbFfoVUqZsGmRxwtsNzw-9" value="" style="endArrow=none;html=1;rounded=0;exitX=0;exitY=0;exitDx=0;exitDy=0;entryX=0;entryY=1;entryDx=0;entryDy=0;dashed=1;dashPattern=8 8;strokeColor=#999999;align=center;verticalAlign=middle;fontFamily=Helvetica;fontSize=11;fontColor=default;labelBackgroundColor=default;startFill=0;" edge="1" parent="1" source="fbFfoVUqZsGmRxwtsNzw-6" target="fbFfoVUqZsGmRxwtsNzw-1">
          <mxGeometry width="50" height="50" relative="1" as="geometry">
            <mxPoint x="297" y="170" as="sourcePoint" />
            <mxPoint x="187" y="120" as="targetPoint" />
          </mxGeometry>
        </mxCell>
        <mxCell id="fbFfoVUqZsGmRxwtsNzw-10" value="" style="endArrow=none;html=1;rounded=0;exitX=0;exitY=0;exitDx=0;exitDy=0;dashed=1;dashPattern=8 8;strokeColor=#999999;align=center;verticalAlign=middle;fontFamily=Helvetica;fontSize=11;fontColor=default;labelBackgroundColor=default;startFill=0;" edge="1" parent="1" source="fbFfoVUqZsGmRxwtsNzw-7">
          <mxGeometry width="50" height="50" relative="1" as="geometry">
            <mxPoint x="250" y="150" as="sourcePoint" />
            <mxPoint x="270" y="90" as="targetPoint" />
          </mxGeometry>
        </mxCell>
        <mxCell id="fbFfoVUqZsGmRxwtsNzw-12" value="" style="endArrow=none;html=1;rounded=0;exitX=1;exitY=0;exitDx=0;exitDy=0;dashed=1;dashPattern=8 8;strokeColor=#999999;align=center;verticalAlign=middle;fontFamily=Helvetica;fontSize=11;fontColor=default;labelBackgroundColor=default;startFill=0;" edge="1" parent="1" source="fbFfoVUqZsGmRxwtsNzw-7">
          <mxGeometry width="50" height="50" relative="1" as="geometry">
            <mxPoint x="369" y="150" as="sourcePoint" />
            <mxPoint x="343" y="110" as="targetPoint" />
          </mxGeometry>
        </mxCell>
        <mxCell id="fbFfoVUqZsGmRxwtsNzw-13" value="&lt;font style=&quot;font-size: 20px;&quot; face=&quot;Times New Roman&quot;&gt;...&lt;/font&gt;" style="text;strokeColor=none;align=center;fillColor=none;html=1;verticalAlign=middle;whiteSpace=wrap;rounded=0;" vertex="1" parent="1">
          <mxGeometry x="454" y="135" width="60" height="30" as="geometry" />
        </mxCell>
        <mxCell id="fbFfoVUqZsGmRxwtsNzw-14" value="" style="endArrow=none;html=1;rounded=0;exitX=0;exitY=0;exitDx=0;exitDy=0;dashed=1;dashPattern=8 8;entryX=0.801;entryY=1;entryDx=0;entryDy=0;entryPerimeter=0;strokeColor=#999999;align=center;verticalAlign=middle;fontFamily=Helvetica;fontSize=11;fontColor=default;labelBackgroundColor=default;startFill=0;" edge="1" parent="1" source="fbFfoVUqZsGmRxwtsNzw-8" target="fbFfoVUqZsGmRxwtsNzw-1">
          <mxGeometry width="50" height="50" relative="1" as="geometry">
            <mxPoint x="356" y="160" as="sourcePoint" />
            <mxPoint x="353" y="120" as="targetPoint" />
          </mxGeometry>
        </mxCell>
        <mxCell id="fbFfoVUqZsGmRxwtsNzw-15" value="" style="endArrow=none;html=1;rounded=0;exitX=1;exitY=0;exitDx=0;exitDy=0;dashed=1;dashPattern=8 8;entryX=1;entryY=1;entryDx=0;entryDy=0;strokeColor=#999999;align=center;verticalAlign=middle;fontFamily=Helvetica;fontSize=11;fontColor=default;labelBackgroundColor=default;startFill=0;" edge="1" parent="1" source="fbFfoVUqZsGmRxwtsNzw-8" target="fbFfoVUqZsGmRxwtsNzw-1">
          <mxGeometry width="50" height="50" relative="1" as="geometry">
            <mxPoint x="547" y="160" as="sourcePoint" />
            <mxPoint x="538" y="121" as="targetPoint" />
          </mxGeometry>
        </mxCell>
        <mxCell id="fbFfoVUqZsGmRxwtsNzw-16" value="&lt;b&gt;&lt;font style=&quot;font-size: 14px;&quot; face=&quot;Times New Roman&quot;&gt;$$f_{i,3}^{t}$$&lt;/font&gt;&lt;/b&gt;" style="rounded=0;whiteSpace=wrap;html=1;strokeColor=none;fillColor=#ffe6cc;" vertex="1" parent="1">
          <mxGeometry x="351" y="135" width="83" height="20" as="geometry" />
        </mxCell>
        <mxCell id="fbFfoVUqZsGmRxwtsNzw-17" value="" style="endArrow=none;html=1;rounded=0;exitX=0;exitY=0;exitDx=0;exitDy=0;dashed=1;dashPattern=8 8;entryX=0.398;entryY=0.993;entryDx=0;entryDy=0;entryPerimeter=0;strokeColor=#999999;align=center;verticalAlign=middle;fontFamily=Helvetica;fontSize=11;fontColor=default;labelBackgroundColor=default;startFill=0;" edge="1" parent="1" source="fbFfoVUqZsGmRxwtsNzw-16" target="fbFfoVUqZsGmRxwtsNzw-1">
          <mxGeometry width="50" height="50" relative="1" as="geometry">
            <mxPoint x="356" y="160" as="sourcePoint" />
            <mxPoint x="353" y="120" as="targetPoint" />
          </mxGeometry>
        </mxCell>
        <mxCell id="fbFfoVUqZsGmRxwtsNzw-18" value="" style="endArrow=none;html=1;rounded=0;exitX=1;exitY=0;exitDx=0;exitDy=0;dashed=1;dashPattern=8 8;entryX=0.587;entryY=1.024;entryDx=0;entryDy=0;entryPerimeter=0;strokeColor=#999999;align=center;verticalAlign=middle;fontFamily=Helvetica;fontSize=11;fontColor=default;labelBackgroundColor=default;startFill=0;" edge="1" parent="1" source="fbFfoVUqZsGmRxwtsNzw-16" target="fbFfoVUqZsGmRxwtsNzw-1">
          <mxGeometry width="50" height="50" relative="1" as="geometry">
            <mxPoint x="441" y="150" as="sourcePoint" />
            <mxPoint x="427" y="110" as="targetPoint" />
          </mxGeometry>
        </mxCell>
        <mxCell id="fbFfoVUqZsGmRxwtsNzw-28" value="&lt;font style=&quot;font-size: 14px;&quot; face=&quot;Times New Roman&quot;&gt;2&lt;/font&gt;" style="ellipse;whiteSpace=wrap;html=1;aspect=fixed;fillColor=#EA6B66;strokeColor=none;" vertex="1" parent="1">
          <mxGeometry x="192" y="352" width="20" height="20" as="geometry" />
        </mxCell>
        <mxCell id="fbFfoVUqZsGmRxwtsNzw-30" value="1" style="ellipse;whiteSpace=wrap;html=1;aspect=fixed;align=center;verticalAlign=middle;fontFamily=Helvetica;fontSize=12;fontColor=default;fillColor=#7EA6E0;strokeColor=none;" vertex="1" parent="1">
          <mxGeometry x="287.5" y="352" width="20" height="20" as="geometry" />
        </mxCell>
        <mxCell id="fbFfoVUqZsGmRxwtsNzw-31" value="1" style="ellipse;whiteSpace=wrap;html=1;aspect=fixed;align=center;verticalAlign=middle;fontFamily=Helvetica;fontSize=12;fontColor=default;fillColor=#7EA6E0;strokeColor=none;" vertex="1" parent="1">
          <mxGeometry x="388" y="352" width="20" height="20" as="geometry" />
        </mxCell>
        <mxCell id="fbFfoVUqZsGmRxwtsNzw-32" value="3" style="ellipse;whiteSpace=wrap;html=1;aspect=fixed;align=center;verticalAlign=middle;fontFamily=Helvetica;fontSize=12;fontColor=default;fillColor=#97D077;strokeColor=none;" vertex="1" parent="1">
          <mxGeometry x="565" y="352" width="20" height="20" as="geometry" />
        </mxCell>
        <mxCell id="fbFfoVUqZsGmRxwtsNzw-35" value="&lt;font style=&quot;font-size: 20px;&quot; face=&quot;Times New Roman&quot;&gt;...&lt;/font&gt;" style="text;strokeColor=none;align=center;fillColor=none;html=1;verticalAlign=middle;whiteSpace=wrap;rounded=0;" vertex="1" parent="1">
          <mxGeometry x="454" y="237.5" width="60" height="30" as="geometry" />
        </mxCell>
        <mxCell id="fbFfoVUqZsGmRxwtsNzw-36" value="&lt;font style=&quot;font-size: 20px;&quot; face=&quot;Times New Roman&quot;&gt;...&lt;/font&gt;" style="text;strokeColor=none;align=center;fillColor=none;html=1;verticalAlign=middle;whiteSpace=wrap;rounded=0;" vertex="1" parent="1">
          <mxGeometry x="454" y="342" width="60" height="30" as="geometry" />
        </mxCell>
        <mxCell id="fbFfoVUqZsGmRxwtsNzw-37" value="" style="shape=flexArrow;endArrow=classic;html=1;rounded=0;endSize=5;startSize=4;" edge="1" parent="1">
          <mxGeometry width="50" height="50" relative="1" as="geometry">
            <mxPoint x="201.3" y="311" as="sourcePoint" />
            <mxPoint x="201.3" y="341" as="targetPoint" />
          </mxGeometry>
        </mxCell>
        <mxCell id="fbFfoVUqZsGmRxwtsNzw-38" value="" style="shape=flexArrow;endArrow=classic;html=1;rounded=0;endSize=5;startSize=4;" edge="1" parent="1">
          <mxGeometry width="50" height="50" relative="1" as="geometry">
            <mxPoint x="297.3" y="311" as="sourcePoint" />
            <mxPoint x="297.3" y="341" as="targetPoint" />
          </mxGeometry>
        </mxCell>
        <mxCell id="fbFfoVUqZsGmRxwtsNzw-39" value="" style="shape=flexArrow;endArrow=classic;html=1;rounded=0;endSize=5;startSize=4;" edge="1" parent="1">
          <mxGeometry width="50" height="50" relative="1" as="geometry">
            <mxPoint x="397" y="311" as="sourcePoint" />
            <mxPoint x="397" y="341" as="targetPoint" />
          </mxGeometry>
        </mxCell>
        <mxCell id="fbFfoVUqZsGmRxwtsNzw-40" value="" style="shape=flexArrow;endArrow=classic;html=1;rounded=0;endSize=5;startSize=4;" edge="1" parent="1">
          <mxGeometry width="50" height="50" relative="1" as="geometry">
            <mxPoint x="573" y="311" as="sourcePoint" />
            <mxPoint x="573" y="341" as="targetPoint" />
          </mxGeometry>
        </mxCell>
        <mxCell id="fbFfoVUqZsGmRxwtsNzw-41" value="" style="shape=flexArrow;endArrow=classic;html=1;rounded=0;endSize=5;startSize=4;" edge="1" parent="1">
          <mxGeometry width="50" height="50" relative="1" as="geometry">
            <mxPoint x="200.1" y="170" as="sourcePoint" />
            <mxPoint x="200.1" y="200" as="targetPoint" />
          </mxGeometry>
        </mxCell>
        <mxCell id="fbFfoVUqZsGmRxwtsNzw-42" value="" style="shape=flexArrow;endArrow=classic;html=1;rounded=0;endSize=5;startSize=4;" edge="1" parent="1">
          <mxGeometry width="50" height="50" relative="1" as="geometry">
            <mxPoint x="297.3" y="170" as="sourcePoint" />
            <mxPoint x="297.3" y="200" as="targetPoint" />
          </mxGeometry>
        </mxCell>
        <mxCell id="fbFfoVUqZsGmRxwtsNzw-43" value="" style="shape=flexArrow;endArrow=classic;html=1;rounded=0;endSize=5;startSize=4;" edge="1" parent="1">
          <mxGeometry width="50" height="50" relative="1" as="geometry">
            <mxPoint x="392.3" y="170" as="sourcePoint" />
            <mxPoint x="392.3" y="200" as="targetPoint" />
          </mxGeometry>
        </mxCell>
        <mxCell id="fbFfoVUqZsGmRxwtsNzw-44" value="" style="shape=flexArrow;endArrow=classic;html=1;rounded=0;endSize=5;startSize=4;" edge="1" parent="1">
          <mxGeometry width="50" height="50" relative="1" as="geometry">
            <mxPoint x="573" y="170" as="sourcePoint" />
            <mxPoint x="573" y="200" as="targetPoint" />
          </mxGeometry>
        </mxCell>
        <mxCell id="fbFfoVUqZsGmRxwtsNzw-45" value="" style="endArrow=classic;html=1;rounded=0;strokeColor=#999999;" edge="1" parent="1">
          <mxGeometry width="50" height="50" relative="1" as="geometry">
            <mxPoint x="177" y="271" as="sourcePoint" />
            <mxPoint x="177" y="221" as="targetPoint" />
          </mxGeometry>
        </mxCell>
        <mxCell id="fbFfoVUqZsGmRxwtsNzw-46" value="" style="endArrow=classic;html=1;rounded=0;strokeColor=#999999;align=center;verticalAlign=middle;fontFamily=Helvetica;fontSize=11;fontColor=default;labelBackgroundColor=default;" edge="1" parent="1">
          <mxGeometry width="50" height="50" relative="1" as="geometry">
            <mxPoint x="177" y="271" as="sourcePoint" />
            <mxPoint x="237" y="291" as="targetPoint" />
          </mxGeometry>
        </mxCell>
        <mxCell id="fbFfoVUqZsGmRxwtsNzw-47" value="" style="endArrow=classic;html=1;rounded=0;strokeColor=#999999;align=center;verticalAlign=middle;fontFamily=Helvetica;fontSize=11;fontColor=default;labelBackgroundColor=default;" edge="1" parent="1">
          <mxGeometry width="50" height="50" relative="1" as="geometry">
            <mxPoint x="177" y="271" as="sourcePoint" />
            <mxPoint x="203" y="256" as="targetPoint" />
          </mxGeometry>
        </mxCell>
        <mxCell id="fbFfoVUqZsGmRxwtsNzw-48" value="&lt;font style=&quot;color: rgb(0, 102, 204);&quot; face=&quot;Times New Roman&quot;&gt;&lt;span style=&quot;font-size: 14px;&quot;&gt;&lt;b style=&quot;&quot;&gt;$$\times$$&lt;/b&gt;&lt;/span&gt;&lt;/font&gt;" style="text;strokeColor=none;align=center;fillColor=none;html=1;verticalAlign=middle;whiteSpace=wrap;rounded=0;strokeWidth=6;" vertex="1" parent="1">
          <mxGeometry x="180.5" y="226" width="20" height="20" as="geometry" />
        </mxCell>
        <mxCell id="fbFfoVUqZsGmRxwtsNzw-49" value="&lt;font style=&quot;color: rgb(204, 0, 102);&quot; face=&quot;Times New Roman&quot;&gt;&lt;span style=&quot;font-size: 14px;&quot;&gt;$$\times$$&lt;/span&gt;&lt;/font&gt;" style="text;strokeColor=none;align=center;fillColor=none;html=1;verticalAlign=middle;whiteSpace=wrap;rounded=0;" vertex="1" parent="1">
          <mxGeometry x="195" y="245" width="20" height="20" as="geometry" />
        </mxCell>
        <mxCell id="fbFfoVUqZsGmRxwtsNzw-50" style="rounded=0;orthogonalLoop=1;jettySize=auto;html=1;exitX=1.072;exitY=-0.07;exitDx=0;exitDy=0;endArrow=open;endFill=0;startSize=9;endSize=3;exitPerimeter=0;" edge="1" parent="1" source="fbFfoVUqZsGmRxwtsNzw-49">
          <mxGeometry relative="1" as="geometry">
            <mxPoint x="221.95190296114305" y="237.5480970388569" as="sourcePoint" />
            <mxPoint x="208.78679768510537" y="251" as="targetPoint" />
          </mxGeometry>
        </mxCell>
        <mxCell id="fbFfoVUqZsGmRxwtsNzw-51" value="" style="ellipse;whiteSpace=wrap;html=1;aspect=fixed;strokeWidth=1;" vertex="1" parent="1">
          <mxGeometry x="216.5" y="237.5" width="6.5" height="6.5" as="geometry" />
        </mxCell>
        <mxCell id="fbFfoVUqZsGmRxwtsNzw-52" value="&lt;font style=&quot;color: rgb(102, 204, 0);&quot; face=&quot;Times New Roman&quot;&gt;&lt;span style=&quot;font-size: 14px;&quot;&gt;$$\times$$&lt;/span&gt;&lt;/font&gt;" style="text;strokeColor=none;align=center;fillColor=none;html=1;verticalAlign=middle;whiteSpace=wrap;rounded=0;" vertex="1" parent="1">
          <mxGeometry x="192" y="265" width="20" height="20" as="geometry" />
        </mxCell>
        <mxCell id="fbFfoVUqZsGmRxwtsNzw-53" value="" style="endArrow=classic;html=1;rounded=0;strokeColor=#999999;align=center;verticalAlign=middle;fontFamily=Helvetica;fontSize=11;fontColor=default;labelBackgroundColor=default;" edge="1" parent="1">
          <mxGeometry width="50" height="50" relative="1" as="geometry">
            <mxPoint x="275" y="269" as="sourcePoint" />
            <mxPoint x="275" y="219" as="targetPoint" />
          </mxGeometry>
        </mxCell>
        <mxCell id="fbFfoVUqZsGmRxwtsNzw-54" value="" style="endArrow=classic;html=1;rounded=0;strokeColor=#999999;align=center;verticalAlign=middle;fontFamily=Helvetica;fontSize=11;fontColor=default;labelBackgroundColor=default;" edge="1" parent="1">
          <mxGeometry width="50" height="50" relative="1" as="geometry">
            <mxPoint x="275" y="269" as="sourcePoint" />
            <mxPoint x="335" y="289" as="targetPoint" />
          </mxGeometry>
        </mxCell>
        <mxCell id="fbFfoVUqZsGmRxwtsNzw-55" value="" style="endArrow=classic;html=1;rounded=0;strokeColor=#999999;align=center;verticalAlign=middle;fontFamily=Helvetica;fontSize=11;fontColor=default;labelBackgroundColor=default;" edge="1" parent="1">
          <mxGeometry width="50" height="50" relative="1" as="geometry">
            <mxPoint x="275" y="269" as="sourcePoint" />
            <mxPoint x="325" y="239" as="targetPoint" />
          </mxGeometry>
        </mxCell>
        <mxCell id="fbFfoVUqZsGmRxwtsNzw-56" value="&lt;font style=&quot;color: rgb(0, 102, 204);&quot; face=&quot;Times New Roman&quot;&gt;&lt;span style=&quot;font-size: 14px;&quot;&gt;$$\times$$&lt;/span&gt;&lt;/font&gt;" style="text;strokeColor=none;align=center;fillColor=none;html=1;verticalAlign=middle;whiteSpace=wrap;rounded=0;" vertex="1" parent="1">
          <mxGeometry x="272" y="243" width="20" height="20" as="geometry" />
        </mxCell>
        <mxCell id="fbFfoVUqZsGmRxwtsNzw-57" value="&lt;font style=&quot;color: rgb(204, 0, 102);&quot; face=&quot;Times New Roman&quot;&gt;&lt;span style=&quot;font-size: 14px;&quot;&gt;$$\times$$&lt;/span&gt;&lt;/font&gt;" style="text;strokeColor=none;align=center;fillColor=none;html=1;verticalAlign=middle;whiteSpace=wrap;rounded=0;" vertex="1" parent="1">
          <mxGeometry x="322" y="249" width="20" height="20" as="geometry" />
        </mxCell>
        <mxCell id="fbFfoVUqZsGmRxwtsNzw-58" style="edgeStyle=orthogonalEdgeStyle;rounded=0;orthogonalLoop=1;jettySize=auto;html=1;curved=1;endArrow=open;endFill=0;endSize=4;dashed=1;dashPattern=8 8;" edge="1" parent="1">
          <mxGeometry relative="1" as="geometry">
            <mxPoint x="281.5" y="240" as="sourcePoint" />
            <mxPoint x="278" y="253.00000000000023" as="targetPoint" />
            <Array as="points">
              <mxPoint x="260.5" y="240" />
              <mxPoint x="260.5" y="253" />
            </Array>
          </mxGeometry>
        </mxCell>
        <mxCell id="fbFfoVUqZsGmRxwtsNzw-59" value="" style="ellipse;whiteSpace=wrap;html=1;aspect=fixed;strokeWidth=1;" vertex="1" parent="1">
          <mxGeometry x="278.5" y="236" width="7" height="7" as="geometry" />
        </mxCell>
        <mxCell id="fbFfoVUqZsGmRxwtsNzw-60" value="&lt;font style=&quot;color: rgb(102, 204, 0);&quot; face=&quot;Times New Roman&quot;&gt;&lt;span style=&quot;font-size: 14px;&quot;&gt;$$\times$$&lt;/span&gt;&lt;/font&gt;" style="text;strokeColor=none;align=center;fillColor=none;html=1;verticalAlign=middle;whiteSpace=wrap;rounded=0;" vertex="1" parent="1">
          <mxGeometry x="302" y="219" width="20" height="20" as="geometry" />
        </mxCell>
        <mxCell id="fbFfoVUqZsGmRxwtsNzw-61" value="" style="endArrow=classic;html=1;rounded=0;strokeColor=#999999;align=center;verticalAlign=middle;fontFamily=Helvetica;fontSize=11;fontColor=default;labelBackgroundColor=default;" edge="1" parent="1">
          <mxGeometry width="50" height="50" relative="1" as="geometry">
            <mxPoint x="374" y="269" as="sourcePoint" />
            <mxPoint x="374" y="219" as="targetPoint" />
          </mxGeometry>
        </mxCell>
        <mxCell id="fbFfoVUqZsGmRxwtsNzw-62" value="" style="endArrow=classic;html=1;rounded=0;strokeColor=#999999;align=center;verticalAlign=middle;fontFamily=Helvetica;fontSize=11;fontColor=default;labelBackgroundColor=default;" edge="1" parent="1">
          <mxGeometry width="50" height="50" relative="1" as="geometry">
            <mxPoint x="374" y="269" as="sourcePoint" />
            <mxPoint x="434" y="289" as="targetPoint" />
          </mxGeometry>
        </mxCell>
        <mxCell id="fbFfoVUqZsGmRxwtsNzw-63" value="" style="endArrow=classic;html=1;rounded=0;strokeColor=#999999;align=center;verticalAlign=middle;fontFamily=Helvetica;fontSize=11;fontColor=default;labelBackgroundColor=default;" edge="1" parent="1">
          <mxGeometry width="50" height="50" relative="1" as="geometry">
            <mxPoint x="374" y="269" as="sourcePoint" />
            <mxPoint x="424" y="239" as="targetPoint" />
          </mxGeometry>
        </mxCell>
        <mxCell id="fbFfoVUqZsGmRxwtsNzw-64" value="&lt;font style=&quot;color: rgb(0, 102, 204);&quot; face=&quot;Times New Roman&quot;&gt;&lt;span style=&quot;font-size: 14px;&quot;&gt;$$\times$$&lt;/span&gt;&lt;/font&gt;" style="text;strokeColor=none;align=center;fillColor=none;html=1;verticalAlign=middle;whiteSpace=wrap;rounded=0;" vertex="1" parent="1">
          <mxGeometry x="413" y="243" width="20" height="20" as="geometry" />
        </mxCell>
        <mxCell id="fbFfoVUqZsGmRxwtsNzw-65" value="&lt;font style=&quot;color: rgb(204, 0, 102);&quot; face=&quot;Times New Roman&quot;&gt;&lt;span style=&quot;font-size: 14px;&quot;&gt;$$\times$$&lt;/span&gt;&lt;/font&gt;" style="text;strokeColor=none;align=center;fillColor=none;html=1;verticalAlign=middle;whiteSpace=wrap;rounded=0;" vertex="1" parent="1">
          <mxGeometry x="371" y="243" width="20" height="20" as="geometry" />
        </mxCell>
        <mxCell id="fbFfoVUqZsGmRxwtsNzw-66" style="edgeStyle=orthogonalEdgeStyle;rounded=0;orthogonalLoop=1;jettySize=auto;html=1;exitX=0.5;exitY=0;exitDx=0;exitDy=0;entryX=0;entryY=0.5;entryDx=0;entryDy=0;curved=1;endArrow=open;endFill=0;endSize=4;dashed=1;dashPattern=8 8;startSize=6;" edge="1" parent="1">
          <mxGeometry relative="1" as="geometry">
            <mxPoint x="418" y="265" as="sourcePoint" />
            <mxPoint x="419" y="255" as="targetPoint" />
            <Array as="points">
              <mxPoint x="405.5" y="265" />
              <mxPoint x="405.5" y="255" />
            </Array>
          </mxGeometry>
        </mxCell>
        <mxCell id="fbFfoVUqZsGmRxwtsNzw-67" value="" style="ellipse;whiteSpace=wrap;html=1;aspect=fixed;strokeWidth=1;" vertex="1" parent="1">
          <mxGeometry x="412" y="263" width="7" height="7" as="geometry" />
        </mxCell>
        <mxCell id="fbFfoVUqZsGmRxwtsNzw-68" value="&lt;font style=&quot;color: rgb(102, 204, 0);&quot; face=&quot;Times New Roman&quot;&gt;&lt;span style=&quot;font-size: 14px;&quot;&gt;$$\times$$&lt;/span&gt;&lt;/font&gt;" style="text;strokeColor=none;align=center;fillColor=none;html=1;verticalAlign=middle;whiteSpace=wrap;rounded=0;" vertex="1" parent="1">
          <mxGeometry x="378" y="235" width="20" height="20" as="geometry" />
        </mxCell>
        <mxCell id="fbFfoVUqZsGmRxwtsNzw-69" value="&lt;font style=&quot;font-size: 13px;&quot; face=&quot;Times New Roman&quot;&gt;$$D_w$$&lt;/font&gt;" style="text;strokeColor=none;align=center;fillColor=none;html=1;verticalAlign=middle;whiteSpace=wrap;rounded=0;" vertex="1" parent="1">
          <mxGeometry x="193.5" y="119.5" width="21.5" height="15" as="geometry" />
        </mxCell>
        <mxCell id="fbFfoVUqZsGmRxwtsNzw-70" value="" style="endArrow=classic;html=1;rounded=0;strokeColor=#999999;align=center;verticalAlign=middle;fontFamily=Helvetica;fontSize=11;fontColor=default;labelBackgroundColor=default;exitX=0;exitY=0.5;exitDx=0;exitDy=0;" edge="1" parent="1" source="fbFfoVUqZsGmRxwtsNzw-69">
          <mxGeometry width="50" height="50" relative="1" as="geometry">
            <mxPoint x="230" y="15" as="sourcePoint" />
            <mxPoint x="160" y="127" as="targetPoint" />
          </mxGeometry>
        </mxCell>
        <mxCell id="fbFfoVUqZsGmRxwtsNzw-71" value="" style="endArrow=classic;html=1;rounded=0;strokeColor=#999999;align=center;verticalAlign=middle;fontFamily=Helvetica;fontSize=11;fontColor=default;labelBackgroundColor=default;exitX=1;exitY=0.5;exitDx=0;exitDy=0;" edge="1" parent="1" source="fbFfoVUqZsGmRxwtsNzw-69">
          <mxGeometry width="50" height="50" relative="1" as="geometry">
            <mxPoint x="204" y="137" as="sourcePoint" />
            <mxPoint x="245" y="127" as="targetPoint" />
          </mxGeometry>
        </mxCell>
        <mxCell id="fbFfoVUqZsGmRxwtsNzw-20" value="" style="endArrow=classic;html=1;rounded=0;strokeColor=#999999;align=center;verticalAlign=middle;fontFamily=Helvetica;fontSize=11;fontColor=default;labelBackgroundColor=default;" edge="1" parent="1">
          <mxGeometry width="50" height="50" relative="1" as="geometry">
            <mxPoint x="553" y="269" as="sourcePoint" />
            <mxPoint x="553" y="219" as="targetPoint" />
          </mxGeometry>
        </mxCell>
        <mxCell id="fbFfoVUqZsGmRxwtsNzw-21" value="" style="endArrow=classic;html=1;rounded=0;strokeColor=#999999;align=center;verticalAlign=middle;fontFamily=Helvetica;fontSize=11;fontColor=default;labelBackgroundColor=default;" edge="1" parent="1">
          <mxGeometry width="50" height="50" relative="1" as="geometry">
            <mxPoint x="553" y="269" as="sourcePoint" />
            <mxPoint x="613" y="289" as="targetPoint" />
          </mxGeometry>
        </mxCell>
        <mxCell id="fbFfoVUqZsGmRxwtsNzw-22" value="" style="endArrow=classic;html=1;rounded=0;strokeColor=#999999;align=center;verticalAlign=middle;fontFamily=Helvetica;fontSize=11;fontColor=default;labelBackgroundColor=default;" edge="1" parent="1">
          <mxGeometry width="50" height="50" relative="1" as="geometry">
            <mxPoint x="553" y="269" as="sourcePoint" />
            <mxPoint x="603" y="239" as="targetPoint" />
          </mxGeometry>
        </mxCell>
        <mxCell id="fbFfoVUqZsGmRxwtsNzw-23" value="&lt;font style=&quot;color: rgb(102, 204, 0);&quot; face=&quot;Times New Roman&quot;&gt;&lt;span style=&quot;font-size: 14px;&quot;&gt;$$\times$$&lt;/span&gt;&lt;/font&gt;" style="text;strokeColor=none;align=center;fillColor=none;html=1;verticalAlign=middle;whiteSpace=wrap;rounded=0;" vertex="1" parent="1">
          <mxGeometry x="533" y="239" width="20" height="20" as="geometry" />
        </mxCell>
        <mxCell id="fbFfoVUqZsGmRxwtsNzw-24" value="&lt;font style=&quot;color: rgb(0, 102, 204);&quot; face=&quot;Times New Roman&quot;&gt;&lt;span style=&quot;font-size: 14px;&quot;&gt;$$\times$$&lt;/span&gt;&lt;/font&gt;" style="text;strokeColor=none;align=center;fillColor=none;html=1;verticalAlign=middle;whiteSpace=wrap;rounded=0;" vertex="1" parent="1">
          <mxGeometry x="576.5" y="219" width="20" height="20" as="geometry" />
        </mxCell>
        <mxCell id="fbFfoVUqZsGmRxwtsNzw-25" value="&lt;font style=&quot;color: rgb(204, 0, 102);&quot; face=&quot;Times New Roman&quot;&gt;&lt;span style=&quot;font-size: 14px;&quot;&gt;$$\times$$&lt;/span&gt;&lt;/font&gt;" style="text;strokeColor=none;align=center;fillColor=none;html=1;verticalAlign=middle;whiteSpace=wrap;rounded=0;" vertex="1" parent="1">
          <mxGeometry x="600" y="249" width="20" height="20" as="geometry" />
        </mxCell>
        <mxCell id="fbFfoVUqZsGmRxwtsNzw-26" value="" style="ellipse;whiteSpace=wrap;html=1;aspect=fixed;strokeWidth=1;" vertex="1" parent="1">
          <mxGeometry x="558" y="252" width="7" height="7" as="geometry" />
        </mxCell>
        <mxCell id="fbFfoVUqZsGmRxwtsNzw-27" value="" style="curved=1;endArrow=open;html=1;rounded=0;exitX=0.5;exitY=0;exitDx=0;exitDy=0;entryX=0.529;entryY=0.005;entryDx=0;entryDy=0;entryPerimeter=0;endFill=0;dashed=1;dashPattern=8 8;endSize=4;" edge="1" parent="1">
          <mxGeometry width="50" height="50" relative="1" as="geometry">
            <mxPoint x="561" y="252" as="sourcePoint" />
            <mxPoint x="543" y="246" as="targetPoint" />
            <Array as="points">
              <mxPoint x="573" y="239" />
              <mxPoint x="553" y="229" />
              <mxPoint x="543" y="239" />
            </Array>
          </mxGeometry>
        </mxCell>
        <mxCell id="fbFfoVUqZsGmRxwtsNzw-77" value="" style="endArrow=none;html=1;rounded=0;exitX=0;exitY=0;exitDx=0;exitDy=0;entryX=0;entryY=1;entryDx=0;entryDy=0;dashed=1;dashPattern=8 8;strokeColor=#999999;align=center;verticalAlign=middle;fontFamily=Helvetica;fontSize=11;fontColor=default;labelBackgroundColor=default;startFill=0;" edge="1" parent="1">
          <mxGeometry width="50" height="50" relative="1" as="geometry">
            <mxPoint x="243" y="134.5" as="sourcePoint" />
            <mxPoint x="268" y="89.5" as="targetPoint" />
          </mxGeometry>
        </mxCell>
      </root>
    </mxGraphModel>
  </diagram>
</mxfile>
